<svg width="129" height="132" viewBox="0 0 129 132" fill="none" xmlns="http://www.w3.org/2000/svg">
<path d="M47.3534 131.78C46.6914 131.78 46.0664 131.673 45.5525 131.414C45.0179 131.18 44.504 130.859 44.0105 130.472C43.5377 130.086 43.1964 129.617 43.0032 129.037C42.8099 128.458 42.6619 127.816 42.5755 127.154L42.7236 94.6879H128.491L89.5153 131.78H47.1972H47.3534ZM84.7457 0.5C85.3254 0.5 85.9216 0.627464 86.5672 0.865946C87.188 1.10032 87.6609 1.42103 88.0022 1.80754C88.3435 2.19404 88.6642 2.66278 88.9438 3.2631C89.2439 3.84285 89.3303 4.46373 89.2439 5.12572L89.3714 37.5921H3.30421L42.5797 0.5H84.7457ZM0.409536 47.4439C0.302631 46.7819 0.409536 46.1816 0.689135 45.6429C0.989293 45.1084 1.33057 44.615 1.71707 44.1874C2.10358 43.7597 2.57232 43.4143 3.15207 43.18C3.75239 42.9209 4.32804 42.814 4.90779 42.814H37.5016L37.3536 128.733L0.413648 89.6058L0.265625 47.4398L0.409536 47.4439Z" fill="#FD1640"/>
<path d="M47.3534 131.78C46.6914 131.78 46.0664 131.673 45.5525 131.414C45.0179 131.18 44.504 130.859 44.0105 130.472C43.5377 130.086 43.1964 129.617 43.0032 129.037C42.8099 128.458 42.6619 127.816 42.5755 127.154L42.7236 94.6879H128.491L89.5153 131.78H47.1972H47.3534ZM84.7457 0.5C85.3254 0.5 85.9216 0.627464 86.5672 0.865946C87.188 1.10032 87.6609 1.42103 88.0022 1.80754C88.3435 2.19404 88.6642 2.66278 88.9438 3.2631C89.2439 3.84285 89.3303 4.46373 89.2439 5.12572L89.3714 37.5921H3.30421L42.5797 0.5H84.7457ZM0.409536 47.4439C0.302631 46.7819 0.409536 46.1816 0.689135 45.6429C0.989293 45.1084 1.33057 44.615 1.71707 44.1874C2.10358 43.7597 2.57232 43.4143 3.15207 43.18C3.75239 42.9209 4.32804 42.814 4.90779 42.814H37.5016L37.3536 128.733L0.413648 89.6058L0.265625 47.4398L0.409536 47.4439Z" fill="#FD1640"/>
</svg>
