<svg width="35" height="46" viewBox="0 0 35 46" fill="none" xmlns="http://www.w3.org/2000/svg">
<path d="M34 43.6986L34 43.7002C34.0004 43.9341 33.9357 44.1647 33.8115 44.367C33.6872 44.5695 33.5075 44.7368 33.2903 44.8487C33.073 44.9608 32.8275 45.0126 32.5807 44.9974C32.334 44.9823 32.0975 44.9009 31.8968 44.7637L31.8955 44.7628L1.5088 24.0628C1.50852 24.0626 1.50824 24.0624 1.50796 24.0622C1.19726 23.8496 0.999999 23.456 0.999999 22.996C0.999999 22.5356 1.19757 22.1429 1.50777 21.9316L1.50793 21.9315L31.8921 1.2332C31.8927 1.23279 31.8933 1.23238 31.8939 1.23197C32.0951 1.0966 32.3314 1.0167 32.5775 1.00234C32.8243 0.98794 33.0698 1.04017 33.2872 1.15235C33.5044 1.26446 33.6842 1.4316 33.809 1.63396C33.9335 1.83587 33.9991 2.06592 34 2.29956C34 2.29992 34 2.30027 34 2.30062L34 43.6986Z" stroke="white" stroke-width="2"/>
</svg>
