<svg width="135" height="132" viewBox="0 0 135 132" fill="none" xmlns="http://www.w3.org/2000/svg">
<path d="M113.524 0.5C107.533 7.93157 99.461 14.9224 89.7258 20.5412C79.3216 26.5456 68.4908 30.052 58.5191 31.3081C59.0985 33.0233 59.7401 34.7452 60.4465 36.4709C64.9756 36.5492 68.7539 36.3481 70.7454 36.0465L73.4244 35.6137L75.8109 35.2516L75.8732 38.1331C75.8251 39.8791 75.7218 41.6438 75.5634 43.4289L91.5821 45.9305C91.8254 45.9036 92.0667 45.888 92.3072 45.8861C95.4722 45.8538 98.3724 47.9483 99.229 51.1459C99.4149 51.8384 99.4898 52.5329 99.468 53.2147C101.157 52.6277 102.793 51.9968 104.356 51.3136L107.071 50.1289L107.725 53.02C108.71 57.3505 109.43 61.8986 109.811 66.6164C119.034 61.9473 127.563 55.688 134.511 47.7076C133.6 37.317 129.941 25.6307 123.443 14.3792C123.235 14.0194 123.027 13.6647 122.815 13.3099L115.018 33.5011C116.476 33.7166 117.882 34.3944 119.005 35.5169C121.78 38.2913 121.781 42.7844 119.005 45.5596C116.229 48.3348 111.728 48.3339 108.954 45.5596C106.447 43.0537 106.212 39.1436 108.237 36.3656L119.253 7.83765C117.428 5.2407 115.514 2.79341 113.524 0.5ZM9.71093 25.4214C7.31766 30.3361 5.25255 35.6615 3.7173 41.3867C-0.273742 56.2716 -0.231874 70.7175 2.92181 81.9641C6.68427 81.2272 10.402 80.8439 14.0429 80.8241C14.5676 80.8207 15.0862 80.8297 15.6072 80.841C21.5075 80.9768 27.2002 82.0665 32.5723 84.0943C32.2668 80.9384 32.1038 77.7083 32.1038 74.4143C32.1038 66.5499 32.9907 59.0315 34.6498 52.0837L35.3486 49.1396L38.0799 50.4302C46.4159 54.385 56.8057 57.0566 68.1457 57.5647C69.5986 51.8927 70.4626 46.3112 70.8071 40.9448C60.8499 42.3112 49.4807 41.7273 37.8765 38.6194C27.0239 35.7135 17.4195 31.0436 9.71121 25.4208L9.71093 25.4214ZM74.9441 48.6802C74.5099 51.637 73.9215 54.6294 73.1851 57.6442C77.6755 57.5896 82.0357 57.1933 86.1981 56.5211C85.8994 56.0006 85.6621 55.4399 85.4994 54.8328C85.0878 53.2961 85.2165 51.7422 85.7648 50.3688L74.9441 48.6799V48.6802ZM24.7489 48.8038L25.9246 53.9581L19.8158 55.3457C22.2911 56.8094 23.5933 59.7879 22.8128 62.7009C21.8736 66.207 18.2738 68.2903 14.7682 67.3511C11.262 66.4119 9.17825 62.8036 10.1174 59.2971C10.3087 58.5851 10.6142 57.9336 11.0018 57.3525L5.0435 58.7047L3.87657 53.551L24.7483 48.8041L24.7489 48.8038ZM134.679 55.2574C127.457 62.4599 119.033 68.1134 110.094 72.3724C110.108 73.0505 110.12 73.7303 110.12 74.4143C110.12 77.0135 110.02 79.572 109.829 82.0878C114.535 82.464 118.894 81.6068 122.656 79.4359C129.99 75.2033 134.144 66.5095 134.679 55.2571L134.679 55.2574ZM38.8228 56.1061C37.6827 61.762 37.0321 67.7924 37.0106 74.0961L37.0459 73.9993C45.6934 76.8774 54.7612 78.9703 63.9914 80.0461L66.1131 80.2937L66.3162 82.4153L67.925 99.4242L62.6562 99.9193L61.9404 92.3519C60.6541 92.8823 59.189 93.0139 57.7409 92.6258C54.235 91.6866 52.151 88.0876 53.0907 84.5815C53.1713 84.2816 53.2738 83.993 53.3914 83.715C47.8651 82.6606 42.4333 81.2843 37.1517 79.6045C37.9127 93.6416 41.7216 106.208 47.3624 115.435C53.6896 125.785 62.1096 131.78 71.1163 131.78C80.123 131.781 88.543 125.786 94.8708 115.435C100.397 106.393 104.163 94.1486 105.028 80.4532C100.566 81.7706 96.0054 82.8725 91.3785 83.7506C91.9199 85.0434 92.0616 86.5173 91.6707 87.9764C90.7309 91.4826 87.1317 93.5658 83.6258 92.6263C83.4187 92.5712 83.2213 92.5055 83.0247 92.4323L82.3174 99.9204L77.0573 99.4248L78.6664 82.4159L78.8701 80.2942L80.9912 80.0467C89.2644 79.0829 97.3976 77.2978 105.223 74.8664V74.4154C105.223 68.3126 104.581 62.4689 103.507 56.9469C94.3777 60.481 83.6165 62.5594 72.0801 62.5594C59.7489 62.5594 48.3212 60.1102 38.8228 56.1058V56.1061ZM14.0697 86.0836C10.9947 86.1125 7.84752 86.4287 4.62821 87.0208C8.21952 95.9659 13.9967 102.034 21.3188 103.994C26.0997 105.274 31.1906 104.712 36.2592 102.509C35.0196 98.5798 34.0317 94.4168 33.333 90.0704C27.3597 87.3481 20.9044 86.0194 14.0697 86.0833V86.0836ZM52.9674 108.777H89.9733C78.6345 121.392 63.771 120.897 52.9674 108.777Z" fill="#FD1640"/>
</svg>
