<svg width="132" height="132" viewBox="0 0 132 132" fill="none" xmlns="http://www.w3.org/2000/svg">
<path fill-rule="evenodd" clip-rule="evenodd" d="M66.0762 0.5C49.6052 0.5 34.5957 5.93999 25.7179 10.3868C24.9177 10.7875 24.1678 11.1801 23.4706 11.5599C22.0915 12.3116 20.9204 13.0133 19.9844 13.6285L30.0858 28.4988L34.8402 30.3916C53.4256 39.769 78.3487 39.769 96.9341 30.3916L102.333 27.5906L111.884 13.6285C110.484 12.6954 108.549 11.5633 106.167 10.3596C106.022 10.2862 105.875 10.2126 105.726 10.1387C96.8868 5.74033 82.242 0.5 66.0762 0.5ZM42.5824 17.3342C38.9472 16.6635 35.3752 15.7384 32.0035 14.6771C40.323 10.9829 52.7213 7.06425 66.0762 7.06425C75.3295 7.06425 84.0783 8.94572 91.3147 11.3281C82.8344 12.5252 73.7846 14.546 65.1641 17.0399C58.3809 19.0022 50.452 18.7862 42.5824 17.3342Z" fill="#FD1640"/>
<path fill-rule="evenodd" clip-rule="evenodd" d="M100.786 35.8008L99.8916 36.2517C79.4463 46.5675 52.3287 46.5675 31.8837 36.2517L31.0337 35.8231C0.321784 69.5239 -31.8977 132.721 66.0766 131.774C163.984 130.828 131.26 68.3611 100.786 35.8008ZM71.5511 59.5778H60.3177V64.8292C56.6674 64.8207 53.1575 66.1417 50.5308 68.5124C47.9048 70.8824 46.369 74.1156 46.2493 77.5267C46.1295 80.9378 47.4351 84.2584 49.8891 86.7846C52.3435 89.3109 55.7536 90.8443 59.3968 91.0599L60.3177 91.0862H71.5511L72.0566 91.1282C72.7041 91.2378 73.29 91.5565 73.7118 92.0288C74.1335 92.5008 74.3649 93.0968 74.3649 93.7119C74.3649 94.3269 74.1335 94.923 73.7118 95.3949C73.29 95.8672 72.7041 96.1859 72.0566 96.2955L71.5511 96.3376H49.0844V106.84H60.3177V112.092H71.5511V106.84C75.2015 106.849 78.7114 105.528 81.3381 103.157C83.9641 100.787 85.4998 97.5539 85.6196 94.1428C85.7394 90.7317 84.4338 87.4112 81.9798 84.8849C79.5254 82.3587 76.1153 80.8253 72.4721 80.6096L71.5511 80.5834H60.3177L59.8123 80.5414C59.1647 80.4317 58.5789 80.113 58.1571 79.6408C57.7354 79.1688 57.504 78.5727 57.504 77.9577C57.504 77.3426 57.7354 76.7466 58.1571 76.2746C58.5789 75.8023 59.1647 75.4836 59.8123 75.374L60.3177 75.332H82.7845V64.8292H71.5511V59.5778Z" fill="#FD1640"/>
</svg>
