<svg width="35" height="46" viewBox="0 0 35 46" fill="none" xmlns="http://www.w3.org/2000/svg">
<path d="M3.91529e-06 43.6986L5.725e-06 2.29744C0.00134089 1.87827 0.11883 1.4674 0.339827 1.10905C0.560824 0.7507 0.876955 0.458441 1.2542 0.263731C1.63144 0.0690217 2.05551 -0.0207648 2.48076 0.00403453C2.906 0.0288377 3.31632 0.167288 3.66755 0.404482L34.0551 21.1051C35.315 21.963 35.315 24.0285 34.0551 24.8887L3.66754 45.5893C3.31705 45.8289 2.90652 45.9694 2.48057 45.9955C2.05462 46.0217 1.62953 45.9325 1.25148 45.7376C0.873444 45.5427 0.556904 45.2496 0.336266 44.8901C0.115631 44.5307 -0.00066749 44.1186 3.91529e-06 43.6986Z" fill="white"/>
</svg>
