<svg width="149" height="149" viewBox="0 0 149 149" fill="none" xmlns="http://www.w3.org/2000/svg">
<path d="M9.35558 148.568C6.54828 145.95 3.65806 143.415 0.992898 140.655C-0.499593 139.115 -0.215324 136.734 1.21794 135.1C1.443 134.851 1.69175 134.614 1.92866 134.377C19.7675 116.538 37.6063 98.6995 55.4096 80.8369C56.2624 79.9841 57.0679 79.7709 58.2169 79.9486C60.9768 80.375 63.7604 80.683 66.544 80.9672C67.3495 81.0502 67.5746 81.3463 67.6456 82.1162C67.9536 85.042 68.4037 87.9559 68.6643 90.8817C68.7235 91.5331 68.4511 92.4334 68.001 92.8835C50.0319 110.924 32.0154 128.94 13.9989 146.921C13.3356 147.584 12.4472 148.011 11.6654 148.556H9.34373L9.35558 148.568Z" fill="#FD1640"/>
<path d="M148.559 69.6668C146.463 72.8058 145.302 73.2204 141.547 72.1899C139.225 71.5502 136.892 70.9817 134.606 70.2709C131.431 69.2759 130.413 65.5921 132.568 63.1994C133.836 61.7898 135.447 61.5055 137.188 61.932C139.794 62.5834 142.376 63.3652 144.982 64.0049C146.723 64.4313 147.73 65.6039 148.571 67.0491V69.655L148.559 69.6668Z" fill="#FD1640"/>
<path d="M68.5457 48.0725C65.4541 40.8588 62.3625 33.7399 59.3775 26.5735C58.9155 25.4719 58.6312 24.0979 58.8563 22.9608C59.4012 20.2127 62.2796 18.9808 65.0395 20.1535C71.424 22.866 77.7967 25.6259 84.1694 28.3503C85.0933 28.7412 86.0173 29.1202 87.036 29.5467C89.784 25.8747 92.4966 22.25 95.221 18.6136C97.2465 15.901 99.2602 13.1885 101.298 10.4878C102.636 8.71102 104.401 8.00032 106.213 8.56888C108.227 9.20852 109.198 10.6418 109.435 12.7384C110.264 20.0705 111.188 27.4027 112.017 34.7467C112.16 35.9786 112.669 36.4287 113.865 36.559C121.245 37.4 128.624 38.2884 136.004 39.1768C138.1 39.4255 139.51 40.5745 140.019 42.3987C140.517 44.1636 139.865 45.9641 138.172 47.2197C132.036 51.8274 125.876 56.4233 119.729 61.0311C119.539 61.1733 119.35 61.3273 119.053 61.5642C119.255 62.0735 119.456 62.5947 119.681 63.104C122.583 69.8913 125.509 76.6549 128.399 83.454C129.596 86.2732 128.47 89.0686 125.722 89.6846C124.597 89.9333 123.211 89.6846 122.121 89.2345C115.227 86.3679 108.369 83.3711 101.511 80.4217C101.215 80.2914 100.895 80.1966 100.539 80.0545C96.0501 86.0481 91.5964 91.9944 87.1426 97.9525C86.7991 98.4145 86.4674 98.9001 86.1002 99.3502C84.9038 100.807 83.3995 101.53 81.4924 101.044C79.5498 100.547 78.4127 99.2081 78.1639 97.2655C77.3229 90.6085 76.5056 83.9515 75.8067 77.2827C75.3685 73.1487 75.4514 73.2198 71.2464 72.7697C64.6249 72.059 58.0153 71.2416 51.4057 70.4362C49.4157 70.1993 47.9706 68.92 47.5205 67.0366C47.0467 65.0703 47.8166 63.5423 49.3802 62.3696C55.7173 57.6197 62.0664 52.8816 68.5457 48.037V48.0725Z" fill="#FD1640"/>
<path d="M135.305 18.0589C134.819 19.0183 134.511 20.1555 133.812 20.9254C131.834 23.0931 129.726 25.1541 127.594 27.1915C125.77 28.9327 123.187 28.8735 121.47 27.1915C119.717 25.4621 119.681 22.8325 121.47 20.9728C123.472 18.888 125.521 16.8388 127.617 14.837C128.991 13.5103 130.65 13.226 132.427 13.9604C134.026 14.6238 135.044 16.2229 135.293 18.0826L135.305 18.0589Z" fill="#FD1640"/>
<path d="M56.0842 43.5495C56.1079 46.416 53.5612 48.4889 50.6828 47.8019C47.8281 47.1267 44.9971 46.3449 42.178 45.5158C39.809 44.8287 38.506 42.436 39.1575 40.1854C39.8445 37.7809 42.0714 36.5016 44.5589 37.1294C47.2714 37.8046 49.9721 38.5153 52.661 39.2615C54.8642 39.8775 56.0724 41.441 56.0961 43.5376L56.0842 43.5495Z" fill="#FD1640"/>
<path d="M104.981 92.5293C106.948 92.5293 108.559 93.5598 109.139 95.4906C110.039 98.4874 110.857 101.508 111.591 104.552C112.088 106.649 110.631 108.793 108.476 109.456C106.438 110.072 104.046 109.124 103.359 107.051C102.316 103.901 101.404 100.691 100.776 97.445C100.255 94.768 102.352 92.553 104.981 92.5411V92.5293Z" fill="#FD1640"/>
<path d="M82.5344 17.1456C80.6155 17.1456 78.9572 16.0203 78.4005 14.1369C77.5476 11.2348 76.754 8.29722 76.0551 5.34777C75.4866 2.9432 76.9554 0.680772 79.2533 0.124049C81.4802 -0.420829 83.7663 0.87029 84.4533 3.19194C85.2707 5.96371 86.0406 8.74734 86.7158 11.5546C87.4383 14.5633 85.4365 17.1574 82.5344 17.1456Z" fill="#FD1640"/>
</svg>
