<svg width="124" height="124" viewBox="0 0 124 124" fill="none" xmlns="http://www.w3.org/2000/svg">
<path d="M123.175 21.1791C122.443 22.0526 121.821 23.0572 120.958 23.7888C117.245 26.9007 113.467 29.9363 109.678 32.9718C109.089 33.4414 108.958 33.8345 109.176 34.577C110.694 39.7527 112.146 44.9502 113.62 50.1369C114.221 52.2334 113.806 53.7293 112.354 54.7339C110.945 55.7057 109.351 55.5528 107.604 54.2425C103.596 51.2397 99.5999 48.2369 95.5271 45.1795C92.5243 47.4289 89.5542 49.6455 86.5842 51.873C85.4595 52.7138 84.3458 53.5655 83.2211 54.3954C81.6269 55.5637 80.0218 55.6729 78.6678 54.723C77.281 53.7511 76.8006 52.2334 77.3356 50.3553C78.8206 45.1249 80.3057 39.9055 81.8453 34.6971C82.0964 33.8672 81.9217 33.4304 81.2666 32.8954C77.3575 29.7725 73.4811 26.595 69.5939 23.4393C68.0106 22.1509 67.4974 20.7205 68.0543 19.1372C68.633 17.4884 69.9433 16.6476 72.007 16.6476C76.6914 16.6476 81.3867 16.6039 86.071 16.6694C87.1083 16.6803 87.5124 16.3309 87.8181 15.3809C89.1393 11.2316 90.5479 7.11508 91.9237 2.97669C92.5898 0.98939 93.7691 0.0175781 95.5271 0.0175781C97.2851 0.0175781 98.4643 0.967552 99.1304 2.96577C100.506 7.09324 101.915 11.2207 103.236 15.37C103.542 16.3091 103.935 16.6803 104.972 16.6585C109.46 16.593 113.948 16.7022 118.436 16.6039C120.63 16.5493 122.236 17.2372 123.186 19.2682V21.19L123.175 21.1791Z" fill="#FD1640"/>
<path d="M38.2664 123.185C36.4429 122.356 35.6458 120.991 35.5366 118.949C35.2527 113.642 35.5366 108.379 36.0826 103.105C37.0544 93.7471 39.1509 84.6623 42.372 75.8287C48.1156 60.0395 57.0693 46.3795 69.3972 34.9361C71.6684 32.8287 74.8349 33.4948 75.6539 36.2901C76.1234 37.8843 75.5338 39.1728 74.3436 40.2647C69.7247 44.5014 65.5864 49.1748 61.9175 54.2632C53.2476 66.3071 47.657 79.6832 44.7634 94.1948C43.1691 102.199 42.3939 110.279 42.8416 118.446C42.9617 120.685 42.2629 122.257 40.1991 123.174H38.2773L38.2664 123.185Z" fill="#FD1640"/>
<path d="M27.2054 123.186C25.7531 122.575 24.967 121.396 24.3446 119.987C20.1843 110.465 17.5637 100.551 16.5701 90.1884C15.5764 79.7169 16.1879 69.4091 19.278 59.3088C19.6602 58.0531 20.097 56.7974 20.5556 55.5745C21.3855 53.4015 23.3618 52.4188 25.3273 53.1613C27.3146 53.9147 28.1772 55.9348 27.3583 58.1077C25.644 62.6174 24.3773 67.258 24.0497 72.0625C23.7113 77.0417 23.4164 82.0645 23.6676 87.0437C24.148 96.4015 26.2664 105.464 29.7933 114.178C30.1973 115.183 30.6122 116.176 31.049 117.159C32.3593 120.129 31.8898 121.636 29.1163 123.186H27.1945H27.2054Z" fill="#FD1640"/>
<path d="M50.5287 123.185C47.919 121.722 47.373 120.467 48.2793 117.562C51.3039 107.92 56.9383 100.517 66.5144 96.5752C69.3316 95.4069 72.2907 94.6862 75.3481 94.577C76.8003 94.5224 77.8814 95.2758 78.5256 96.5534C79.1589 97.7982 79.1698 99.1303 78.2417 100.157C77.5865 100.866 76.6038 101.598 75.6975 101.707C64.8656 103.039 58.5434 109.493 55.3222 119.484C54.7872 121.133 54.1211 122.497 52.4505 123.196H50.5287V123.185Z" fill="#FD1640"/>
<path d="M123.174 4.58165C122.497 5.95747 121.58 7.06031 119.92 7.21318C118.075 7.37697 116.415 6.16494 116.011 4.39602C115.629 2.67078 116.59 0.901865 118.271 0.25763C119.997 -0.408444 121.842 0.290388 122.759 1.96103C122.89 2.20125 123.032 2.43056 123.163 2.67078V4.59257L123.174 4.58165Z" fill="#FD1640"/>
<path d="M2.66988 123.186C1.29405 122.498 0.180303 121.603 0.038353 119.932C-0.125436 118.076 1.07567 116.427 2.8555 116.023C4.58074 115.641 6.34967 116.602 6.9939 118.283C7.65998 120.008 6.96115 121.854 5.2905 122.771C5.05028 122.902 4.82098 123.044 4.59167 123.186H2.66988Z" fill="#FD1640"/>
<path d="M24.0822 44.4259C20.6863 46.9701 17.4214 49.4269 14.1566 51.8728C12.4969 53.1176 10.9027 53.2814 9.50499 52.3423C8.05274 51.3705 7.60503 49.8418 8.19467 47.7563C9.39579 43.5305 10.5969 39.3048 11.8199 35.079C12.0273 34.3802 11.94 33.9544 11.3285 33.4739C8.16193 30.9625 5.03902 28.3855 1.89428 25.8304C0.158126 24.4109 -0.366008 23.0024 0.245469 21.3536C0.856946 19.672 2.06898 18.9841 4.37294 18.9732C8.14008 18.9732 11.9072 18.9404 15.6744 18.995C16.5151 19.0059 16.8645 18.7329 17.1048 17.9577C18.1967 14.529 19.3541 11.1222 20.4897 7.71542C21.1449 5.76088 22.3679 4.78907 24.1259 4.81091C25.8402 4.82183 27.0304 5.78272 27.6746 7.68267C28.8102 11.0567 29.9676 14.4198 31.0159 17.8157C31.3107 18.7766 31.7693 19.0059 32.7084 18.995C36.5192 18.9404 40.3191 18.9622 44.1299 18.9732C46.1499 18.9732 47.3947 19.7812 47.9516 21.43C48.4867 22.9805 47.9844 24.4328 46.4884 25.6557C43.3219 28.2436 40.1662 30.8424 36.956 33.3647C36.2244 33.9434 36.1588 34.4457 36.3991 35.2756C37.6329 39.4576 38.8122 43.6397 40.0024 47.8327C40.5593 49.8091 40.1007 51.3596 38.6812 52.3205C37.3054 53.2486 35.7112 53.1285 34.1279 51.9492C30.7975 49.4597 27.4781 46.9592 24.0931 44.415L24.0822 44.4259Z" fill="#FD1640"/>
<path d="M102.308 80.3495C105.955 80.3495 109.525 80.3495 113.085 80.3495C115.138 80.3495 116.361 81.1247 116.95 82.7517C117.518 84.3459 117.027 85.7982 115.455 87.0757C112.812 89.2268 110.191 91.3997 107.505 93.5072C106.806 94.0531 106.621 94.5336 106.883 95.4071C107.953 98.9231 108.936 102.472 109.929 106.01C110.497 108.03 110.06 109.548 108.674 110.519C107.243 111.513 105.649 111.371 103.924 110.072C101.391 108.172 98.8464 106.294 96.3349 104.361C95.7125 103.88 95.3085 103.87 94.6752 104.361C92.142 106.326 89.565 108.226 86.999 110.148C85.3611 111.371 83.7451 111.513 82.3365 110.541C80.9388 109.58 80.4911 108.052 81.0589 106.042C82.0744 102.472 83.079 98.8903 84.1382 95.3307C84.3565 94.5772 84.2583 94.1186 83.6031 93.6054C80.8951 91.4762 78.2418 89.2814 75.5666 87.1085C73.9942 85.8309 73.481 84.3896 74.0379 82.8063C74.6166 81.1684 75.8505 80.3822 77.8814 80.3822C81.1244 80.3822 84.3784 80.3495 87.6214 80.4041C88.4403 80.415 88.7898 80.1748 89.0409 79.3886C89.9363 76.5277 90.919 73.6997 91.8799 70.8607C92.5569 68.8624 93.7252 67.9015 95.4723 67.8906C97.2303 67.8906 98.4205 68.8406 99.0866 70.8279C100.157 74.0054 101.216 77.1829 102.286 80.3822L102.308 80.3495Z" fill="#FD1640"/>
<path d="M63.9486 13.776C63.8503 18.5368 62.267 22.697 59.0022 26.2021C57.3643 27.9601 55.1477 28.1457 53.5753 26.6716C52.0575 25.2521 52.0794 23.0464 53.6408 21.3103C57.7028 16.8006 57.6919 10.8496 53.619 6.31816C52.0794 4.60384 52.0684 2.36539 53.5971 0.95681C55.1367 -0.462691 57.3315 -0.287983 58.9476 1.38266C62.0705 4.61475 63.9377 9.23359 63.9486 13.7869V13.776Z" fill="#FD1640"/>
<path d="M73.8628 69.0489C73.8628 71.0908 72.2467 72.6741 70.2048 72.6522C68.2284 72.6304 66.667 71.0362 66.667 69.0489C66.667 67.007 68.283 65.4237 70.3249 65.4455C72.3122 65.4674 73.8737 67.0507 73.8628 69.0489Z" fill="#FD1640"/>
</svg>
